<?xml version="1.0" encoding="UTF-8" standalone="no"?>
<svg width="23px" height="23px" viewBox="0 0 23 23" version="1.1" xmlns="http://www.w3.org/2000/svg" xmlns:xlink="http://www.w3.org/1999/xlink" xmlns:sketch="http://www.bohemiancoding.com/sketch/ns">
    <!-- Generator: Sketch 3.3.2 (12043) - http://www.bohemiancoding.com/sketch -->
    <title>email</title>
    <desc>Created with Sketch.</desc>
    <defs></defs>
    <g id="Welcome" stroke="none" stroke-width="1" fill="none" fill-rule="evenodd" sketch:type="MSPage">
        <g id="Mobile-Portrait" sketch:type="MSArtboardGroup" transform="translate(-215.000000, -992.000000)" fill="#8A8A8A">
            <g id="Group-Copy" sketch:type="MSLayerGroup" transform="translate(-190.000000, 984.000000)">
                <g id="email" transform="translate(405.145315, 8.509527)" sketch:type="MSShapeGroup">
                    <path d="M11.5136057,13.0458415 C11.2449076,13.3146827 10.8085419,13.3146827 10.5415635,13.0458415 L9.99728864,12.5034275 L7.90488287,14.5431795 L14.1317999,14.5431795 L12.0393941,12.5202031 L11.5136057,13.0458415 Z M15.2031529,8.34778744 L6.84169826,8.34778744 L11.0067336,12.4780488 L15.2031529,8.34778744 Z M6.18994418,8.69405493 L6.18994418,14.5431795 L6.89887722,14.5431795 L9.48826698,11.9941346 L6.18994418,8.69405493 Z M15.1545723,14.5431795 L15.8213735,14.5431795 L15.8213735,8.73620923 L12.5651826,11.9941346 L15.1545723,14.5431795 Z M11.0067336,0.433962264 C4.92727811,0.433962264 0,5.36386499 0,11.4465589 C0,17.527102 4.92727811,22.4570047 11.0067336,22.4570047 C17.0840396,22.4570047 22.0113177,17.527102 22.0113177,11.4465589 C22.0113177,5.36386499 17.0840396,0.433962264 11.0067336,0.433962264 L11.0067336,0.433962264 Z M16.5079509,14.5431795 C16.5079509,14.9229984 16.2009902,15.2301226 15.8213735,15.2301226 L6.18994418,15.2301226 C5.81075743,15.2301226 5.50336681,14.9229984 5.50336681,14.5431795 L5.50336681,8.34778744 C5.50336681,7.96839871 5.81075743,7.66084436 6.18994418,7.66084436 L15.8213735,7.66084436 C16.2009902,7.66084436 16.5079509,7.96839871 16.5079509,8.34778744 L16.5079509,14.5431795 Z" id="Fill-1"></path>
                </g>
            </g>
        </g>
    </g>
</svg>