<?xml version="1.0" encoding="UTF-8" standalone="no"?>
<svg width="23px" height="22px" viewBox="0 0 23 22" version="1.1" xmlns="http://www.w3.org/2000/svg" xmlns:xlink="http://www.w3.org/1999/xlink" xmlns:sketch="http://www.bohemiancoding.com/sketch/ns">
    <!-- Generator: Sketch 3.3.2 (12043) - http://www.bohemiancoding.com/sketch -->
    <title>facebook2</title>
    <desc>Created with Sketch.</desc>
    <defs></defs>
    <g id="Welcome" stroke="none" stroke-width="1" fill="none" fill-rule="evenodd" sketch:type="MSPage">
        <g id="Mobile-Portrait" sketch:type="MSArtboardGroup" transform="translate(-116.000000, -993.000000)" fill="#8A8A8A">
            <g id="Group-Copy" sketch:type="MSLayerGroup" transform="translate(-190.000000, 984.000000)">
                <g id="facebook2" transform="translate(306.805287, 8.947027)" sketch:type="MSShapeGroup">
                    <path d="M10.8127655,0.151077744 C4.85128863,0.151077744 0,4.99371723 0,10.9438979 C0,16.8962523 4.85128863,21.7383483 10.8127655,21.7383483 C16.7764203,21.7383483 21.6282534,16.8962523 21.6282534,10.9438979 C21.6282534,4.99371723 16.7764203,0.151077744 10.8127655,0.151077744 L10.8127655,0.151077744 Z M13.5035701,11.323766 L11.7443654,11.323766 L11.7443654,17.5842538 L9.13686582,17.5842538 L9.13686582,11.323766 L7.89709206,11.323766 L7.89709206,9.11194436 L9.13686582,9.11194436 L9.13686582,7.68105335 C9.13686582,6.65774619 9.62417259,5.05512652 11.7677779,5.05512652 L13.6990373,5.0632782 L13.6990373,7.20988643 L12.2975539,7.20988643 C12.0677846,7.20988643 11.7443654,7.32455335 11.7443654,7.81256707 L11.7443654,9.11411814 L13.7311614,9.11411814 L13.5035701,11.323766 Z" id="Fill-1"></path>
                </g>
            </g>
        </g>
    </g>
</svg>