<?xml version="1.0" encoding="UTF-8" standalone="no"?>
<svg width="54px" height="54px" viewBox="0 0 54 54" version="1.1" xmlns="http://www.w3.org/2000/svg" xmlns:xlink="http://www.w3.org/1999/xlink" xmlns:sketch="http://www.bohemiancoding.com/sketch/ns">
    <!-- Generator: Sketch 3.3.2 (12043) - http://www.bohemiancoding.com/sketch -->
    <title>currency_exchange</title>
    <desc>Created with Sketch.</desc>
    <defs></defs>
    <g id="Welcome" stroke="none" stroke-width="1" fill="none" fill-rule="evenodd" sketch:type="MSPage">
        <g id="Desktop-HD" sketch:type="MSArtboardGroup" transform="translate(-26.000000, -240.000000)">
            <g id="Sidebar" sketch:type="MSLayerGroup" transform="translate(-1.000000, 0.000000)">
                <g id="Forex-Button" transform="translate(1.000000, 215.000000)" sketch:type="MSShapeGroup">
                    <g id="currency_exchange" transform="translate(27.000000, 27.000000)">
                        <circle id="Oval" fill="#3F51B5" cx="16.4285714" cy="16.4285714" r="16.4285714"></circle>
                        <path d="M18.947619,14.2380952 L18.947619,16.1 L14.7857143,16.1 L14.7857143,17.6333333 L18.947619,17.6333333 L18.947619,19.4952381 L14.7857143,19.4952381 C14.7857143,20.152381 14.8952381,20.8095238 15.1142857,21.247619 C15.3333333,21.6857143 15.552381,22.1238095 15.8809524,22.3428571 C16.2095238,22.6714286 16.647619,22.7809524 17.0857143,23 C17.5238095,23.1095238 18.0714286,23.2190476 18.6190476,23.2190476 C19.0571429,23.2190476 19.3857143,23.2190476 19.8238095,23.1095238 C20.2619048,23 20.5904762,23 20.9190476,22.7809524 L21.3571429,25.7380952 C20.9190476,25.847619 20.3714286,25.9571429 19.8238095,25.9571429 C19.2761905,26.0666667 18.7285714,26.0666667 18.1809524,26.0666667 C17.1952381,26.0666667 16.2095238,25.9571429 15.3333333,25.6285714 C14.4571429,25.4095238 13.6904762,24.9714286 13.1428571,24.4238095 C12.4857143,23.8761905 12.047619,23.2190476 11.6095238,22.3428571 C11.2809524,21.5761905 11.0619048,20.5904762 11.0619048,19.4952381 L8.98095238,19.4952381 L8.98095238,17.6333333 L11.0619048,17.6333333 L11.0619048,16.1 L8.98095238,16.1 L8.98095238,14.2380952 L11.0619048,14.2380952 C11.1714286,13.1428571 11.3904762,12.2666667 11.7190476,11.3904762 C12.1571429,10.6238095 12.5952381,9.85714286 13.252381,9.30952381 C13.9095238,8.76190476 14.6761905,8.32380952 15.552381,8.1047619 C16.4285714,7.77619048 17.4142857,7.66666667 18.4,7.66666667 C18.8380952,7.66666667 19.3857143,7.66666667 19.8238095,7.77619048 C20.2619048,7.88571429 20.8095238,7.88571429 21.247619,8.1047619 L20.8095238,11.0619048 C20.4809524,10.952381 20.152381,10.8428571 19.7142857,10.7333333 C19.2761905,10.6238095 18.947619,10.6238095 18.5095238,10.6238095 C17.9619048,10.6238095 17.4142857,10.7333333 16.9761905,10.8428571 C16.5380952,10.952381 16.1,11.1714286 15.8809524,11.5 C15.552381,11.8285714 15.3333333,12.1571429 15.1142857,12.5952381 C14.8952381,13.0333333 14.7857143,13.5809524 14.7857143,14.2380952 L18.947619,14.2380952 L18.947619,14.2380952 Z" id="Shape" fill="#FFF59D"></path>
                        <circle id="Oval" fill="#4CAF50" cx="29.5714286" cy="29.5714286" r="16.4285714"></circle>
                        <path d="M27.8190476,26.2857143 C27.9285714,26.5047619 28.0380952,26.7238095 28.2571429,26.9428571 C28.4761905,27.1619048 28.6952381,27.3809524 29.0238095,27.4904762 C29.352381,27.7095238 29.7904762,27.8190476 30.2285714,28.0380952 C30.9952381,28.3666667 31.7619048,28.6952381 32.4190476,29.0238095 C33.0761905,29.352381 33.6238095,29.7904762 34.0619048,30.2285714 C34.5,30.6666667 34.9380952,31.2142857 35.1571429,31.7619048 C35.3761905,32.3095238 35.5952381,33.0761905 35.5952381,33.8428571 C35.5952381,34.6095238 35.4857143,35.2666667 35.2666667,35.8142857 C35.047619,36.3619048 34.7190476,36.9095238 34.2809524,37.347619 C33.8428571,37.7857143 33.2952381,38.1142857 32.747619,38.3333333 C32.0904762,38.552381 31.4333333,38.7714286 30.7761905,38.8809524 L30.7761905,41.2904762 L28.8047619,41.2904762 L28.8047619,38.8809524 C28.147619,38.7714286 27.4904762,38.6619048 26.8333333,38.4428571 C26.1761905,38.2238095 25.6285714,37.8952381 25.1904762,37.347619 C24.6428571,36.9095238 24.3142857,36.252381 23.9857143,35.5952381 C23.6571429,34.9380952 23.547619,34.0619048 23.547619,33.0761905 L27.1619048,33.0761905 C27.1619048,33.6238095 27.2714286,34.1714286 27.3809524,34.5 C27.4904762,34.9380952 27.7095238,35.1571429 28.0380952,35.4857143 C28.2571429,35.7047619 28.5857143,35.9238095 28.9142857,36.0333333 C29.2428571,36.1428571 29.5714286,36.1428571 29.9,36.1428571 C30.3380952,36.1428571 30.6666667,36.1428571 30.8857143,36.0333333 C31.2142857,35.9238095 31.4333333,35.8142857 31.652381,35.5952381 C31.8714286,35.3761905 31.9809524,35.1571429 32.0904762,34.9380952 C32.2,34.7190476 32.2,34.3904762 32.2,34.0619048 C32.2,33.7333333 32.2,33.4047619 32.0904762,33.1857143 C31.9809524,32.9666667 31.8714286,32.6380952 31.652381,32.4190476 C31.4333333,32.2 31.2142857,31.9809524 30.8857143,31.8714286 C30.5571429,31.652381 30.1190476,31.5428571 29.6809524,31.3238095 C28.9142857,30.9952381 28.147619,30.6666667 27.4904762,30.3380952 C26.8333333,30.0095238 26.2857143,29.5714286 25.847619,29.1333333 C25.4095238,28.6952381 24.9714286,28.147619 24.752381,27.6 C24.5333333,27.052381 24.3142857,26.2857143 24.3142857,25.5190476 C24.3142857,24.8619048 24.4238095,24.2047619 24.6428571,23.6571429 C24.8619048,23.1095238 25.1904762,22.5619048 25.6285714,22.1238095 C26.0666667,21.6857143 26.6142857,21.3571429 27.1619048,21.0285714 C27.7095238,20.8095238 28.4761905,20.5904762 29.1333333,20.4809524 L29.1333333,17.852381 L31.1047619,17.852381 L31.1047619,20.4809524 C31.7619048,20.5904762 32.4190476,20.8095238 33.0761905,21.1380952 C33.6238095,21.4666667 34.1714286,21.7952381 34.5,22.3428571 C34.9380952,22.7809524 35.2666667,23.4380952 35.4857143,24.0952381 C35.7047619,24.752381 35.8142857,25.5190476 35.8142857,26.2857143 L32.2,26.2857143 C32.2,25.3 31.9809524,24.5333333 31.5428571,24.0952381 C31.1047619,23.6571429 30.5571429,23.3285714 29.9,23.3285714 C29.5714286,23.3285714 29.2428571,23.4380952 28.9142857,23.547619 C28.6952381,23.6571429 28.4761905,23.7666667 28.2571429,23.9857143 C28.0380952,24.2047619 27.9285714,24.4238095 27.9285714,24.6428571 C27.8190476,24.8619048 27.8190476,25.1904762 27.8190476,25.5190476 C27.7095238,25.7380952 27.8190476,26.0666667 27.8190476,26.2857143 L27.8190476,26.2857143 Z" id="Shape" fill="#FFFFFF"></path>
                    </g>
                </g>
            </g>
        </g>
    </g>
</svg>