<?xml version="1.0" encoding="UTF-8" standalone="no"?>
<svg width="23px" height="22px" viewBox="0 0 23 22" version="1.1" xmlns="http://www.w3.org/2000/svg" xmlns:xlink="http://www.w3.org/1999/xlink" xmlns:sketch="http://www.bohemiancoding.com/sketch/ns">
    <!-- Generator: Sketch 3.3.2 (12043) - http://www.bohemiancoding.com/sketch -->
    <title>github10</title>
    <desc>Created with Sketch.</desc>
    <defs></defs>
    <g id="Welcome" stroke="none" stroke-width="1" fill="none" fill-rule="evenodd" sketch:type="MSPage">
        <g id="Mobile-Portrait" sketch:type="MSArtboardGroup" transform="translate(-82.000000, -992.000000)" fill="#8A8A8A">
            <g id="Group-Copy" sketch:type="MSLayerGroup" transform="translate(-190.000000, 984.000000)">
                <path d="M293.132863,13.9644471 C292.148185,12.2807553 290.811961,10.9477228 289.125073,9.96491054 C287.437305,8.9818787 285.595763,8.49047256 283.597808,8.49047256 C281.599853,8.49047256 279.757432,8.9818787 278.069663,9.96491054 C276.382775,10.9477228 275.047212,12.2807553 274.062534,13.9644471 C273.077636,15.6487976 272.585297,17.487728 272.585297,19.4818972 C272.585297,21.8767885 273.285747,24.0303682 274.685547,25.9430754 C276.086228,27.8557827 277.895211,29.1800322 280.113157,29.9142869 C280.370986,29.9623736 280.562597,29.9289984 280.686232,29.81482 C280.810967,29.6999829 280.872784,29.5566012 280.872784,29.3851141 C280.872784,29.3567891 280.870144,29.0994486 280.865965,28.6122144 C280.860685,28.126078 280.858045,27.7014223 280.858045,27.3386864 L280.528939,27.3959952 C280.318408,27.4346402 280.052879,27.4508886 279.733233,27.4458384 C279.412706,27.4414469 279.08008,27.4080717 278.736455,27.3454932 C278.39195,27.283793 278.072083,27.1412896 277.775756,26.9166656 C277.479209,26.6927003 277.269557,26.3993497 277.145043,26.0366139 L277.001389,25.7072532 C276.906133,25.4876794 276.755659,25.2450504 276.550188,24.9773899 C276.344057,24.7106078 276.136166,24.5288007 275.926515,24.4335056 L275.825759,24.3623637 C275.758882,24.3142771 275.697064,24.2569683 275.639427,24.1899983 C275.581789,24.1239066 275.538891,24.0569366 275.510512,23.9901862 C275.482134,23.9232162 275.505233,23.8683227 275.581789,23.8255058 C275.658346,23.7815911 275.7976,23.7611707 275.997792,23.7611707 L276.284659,23.8039876 C276.475611,23.8417543 276.712761,23.9565914 276.994569,24.1471814 C277.276377,24.3384302 277.508467,24.586329 277.68974,24.8915366 C277.90973,25.2825975 278.174379,25.5803395 278.485446,25.7860802 C278.796513,25.9911621 279.109339,26.0932639 279.424806,26.0932639 C279.740052,26.0932639 280.012621,26.0691108 280.242071,26.022122 C280.471521,25.9740353 280.686232,25.9028934 280.887304,25.8075984 C280.97332,25.1677604 281.20783,24.6763542 281.589514,24.3331604 C281.044597,24.2756321 280.554898,24.1899983 280.119976,24.0749416 C279.685055,23.9609828 279.235614,23.7747843 278.772534,23.5165655 C278.308573,23.2594446 277.92359,22.9395256 277.617583,22.5585651 C277.312456,22.1769458 277.060786,21.6752197 276.865655,21.0558021 C276.669643,20.4348474 276.571747,19.719476 276.571747,18.9090292 C276.571747,17.7545102 276.949031,16.7716979 277.704479,15.9601532 C277.350294,15.092178 277.383733,14.1196857 277.805015,13.0413589 C278.081543,12.9548468 278.493145,13.0200602 279.038062,13.2343642 C279.582979,13.4488878 279.981602,13.6333298 280.235031,13.7850553 C280.488681,13.9376591 280.691512,14.0672076 280.844405,14.1719443 C281.733828,13.9240455 282.651629,13.7997667 283.597808,13.7997667 C284.543768,13.7997667 285.461569,13.9240455 286.350991,14.1719443 L286.895908,13.8278722 C287.267912,13.5988567 287.707893,13.3896029 288.214972,13.1983541 C288.72117,13.0079836 289.108574,12.9557251 289.376742,13.0413589 C289.806384,14.1196857 289.845103,15.092178 289.491138,15.9610315 C290.246365,16.7716979 290.623649,17.7545102 290.623649,18.9090292 C290.623649,19.719476 290.525754,20.4374823 290.329742,21.0628284 C290.13395,21.687955 289.881181,22.1890224 289.570114,22.5653719 C289.259047,22.9428192 288.872304,23.2594446 288.408344,23.5174438 C287.945043,23.7747843 287.495602,23.9609828 287.060901,24.0749416 C286.625979,24.1899983 286.13628,24.2756321 285.591363,24.3331604 C286.088102,24.7628663 286.336472,25.4395927 286.336472,26.3650962 L286.336472,29.3851141 C286.336472,29.5566012 286.396529,29.6999829 286.515984,29.8139417 C286.635439,29.9281201 286.823751,29.9623736 287.08224,29.9142869 C289.300186,29.1791539 291.109169,27.8557827 292.508969,25.9421971 C293.90987,24.0294899 294.6101,21.8759102 294.6101,19.4812385 C294.60922,17.487728 294.116881,15.6487976 293.132863,13.9644471 L293.132863,13.9644471 Z" id="github10" sketch:type="MSShapeGroup"></path>
            </g>
        </g>
    </g>
</svg>