<?xml version="1.0" encoding="UTF-8" standalone="no"?>
<svg width="22px" height="22px" viewBox="0 0 22 22" version="1.1" xmlns="http://www.w3.org/2000/svg" xmlns:xlink="http://www.w3.org/1999/xlink" xmlns:sketch="http://www.bohemiancoding.com/sketch/ns">
    <!-- Generator: Sketch 3.3.2 (12043) - http://www.bohemiancoding.com/sketch -->
    <title>google-plus</title>
    <desc>Created with Sketch.</desc>
    <defs></defs>
    <g id="Welcome" stroke="none" stroke-width="1" fill="none" fill-rule="evenodd" sketch:type="MSPage">
        <g id="Mobile-Portrait" sketch:type="MSArtboardGroup" transform="translate(-182.000000, -993.000000)" fill="#8A8A8A">
            <g id="Group-Copy" sketch:type="MSLayerGroup" transform="translate(-190.000000, 984.000000)">
                <g id="google-plus" transform="translate(372.365306, 9.228277)" sketch:type="MSShapeGroup">
                    <path d="M9.36445714,12.7334627 C9.29421963,12.6867264 9.22234869,12.6378163 9.14775536,12.5845587 C8.9283312,12.5188018 8.69692854,12.4829345 8.45844768,12.4807607 L8.42850146,12.4807607 C7.33355854,12.4807607 6.37419035,13.1410465 6.37419035,13.8964352 C6.37419035,14.7181242 7.19743933,15.3615633 8.24610172,15.3615633 C9.63070632,15.3615633 10.332537,14.883875 10.332537,13.9453453 C10.332537,13.8562203 10.3216474,13.7627477 10.3004128,13.6714489 C10.2067628,13.3062538 9.8708206,13.0790937 9.36445714,12.7334627 L9.36445714,12.7334627 Z" id="Fill-1"></path>
                    <g id="Group-5">
                        <path d="M8.58803317,9.86950686 L8.59021108,9.86950686 C8.85210444,9.86950686 9.07316203,9.76570884 9.24358328,9.5700686 C9.51146589,9.26465244 9.63070632,8.76359604 9.5604688,8.23265015 C9.43687256,7.28162119 8.75627651,6.48982165 8.04573424,6.47080107 L8.01633249,6.46862729 C7.76532867,6.46862729 7.54209316,6.57296875 7.37167191,6.76806555 C7.10596722,7.06967759 6.99543842,7.54736585 7.06349802,8.07776829 C7.1887277,9.02662348 7.88402462,9.84613872 8.57986602,9.86950686 L8.58803317,9.86950686 Z" id="Fill-2"></path>
                        <path d="M10.8127655,0.151077744 C4.85128863,0.151077744 0,4.99371723 0,10.9438979 C0,16.8962523 4.85128863,21.7383483 10.8127655,21.7383483 C16.7764203,21.7383483 21.6282534,16.8962523 21.6282534,10.9438979 C21.6282534,4.99371723 16.7764203,0.151077744 10.8127655,0.151077744 L10.8127655,0.151077744 Z M9.56645805,16.2000991 C9.15810042,16.3185701 8.71598523,16.3783491 8.25209096,16.3783491 C7.73538244,16.3783491 7.23990852,16.3185701 6.77601425,16.2022729 C5.88089433,15.9767431 5.21935497,15.5479649 4.90900317,14.9963681 C4.77506187,14.7583392 4.7086357,14.5056372 4.7086357,14.240436 C4.7086357,13.9708872 4.77288397,13.6948171 4.90029155,13.4230945 C5.39140965,12.378593 6.68672005,11.6759184 8.12032757,11.6759184 L8.16061885,11.6759184 C8.04355633,11.4721265 7.98856417,11.2601829 7.98856417,11.0373704 C7.98856417,10.9270511 8.00326505,10.8140145 8.03321127,10.6977172 C6.52936625,10.6634802 5.4044771,9.56626448 5.4044771,8.1163529 C5.4044771,7.09304573 6.22337026,6.09745427 7.39508442,5.69421799 C7.74627198,5.57302973 8.10344879,5.51162043 8.45409187,5.51162043 L11.6703166,5.51162043 C11.7786674,5.51162043 11.8761288,5.58172485 11.9104308,5.68552287 C11.9447329,5.78932088 11.906075,5.9039878 11.8189587,5.96811433 L11.1002493,6.48819131 C11.0556022,6.51753735 11.0044214,6.53438415 10.9510626,6.53438415 L10.6940696,6.53438415 C11.025656,6.93164253 11.2211232,7.50062957 11.2211232,8.13754726 C11.2211232,8.8402218 10.8639464,9.50431174 10.2154744,10.0097157 C9.7156447,10.4004527 9.69441011,10.5085983 9.69441011,10.729237 C9.70039935,10.8525991 10.049409,11.2514878 10.4343541,11.5232104 C11.331652,12.1557805 11.6659607,12.7758514 11.6659607,13.8138316 C11.6659607,14.8942005 10.8405339,15.8305564 9.56645805,16.2000991 L9.56645805,16.2000991 Z M16.8276012,10.6955434 C16.8276012,10.8357523 16.7148945,10.9482454 16.5765973,10.9482454 L14.7476996,10.9482454 L14.7476996,12.7715038 C14.7476996,12.9117127 14.6349929,13.0242058 14.4966958,13.0242058 L13.9756315,13.0242058 C13.8351565,13.0242058 13.7224498,12.9117127 13.7224498,12.7715038 L13.7224498,10.9482454 L11.89573,10.9482454 C11.7574328,10.9482454 11.6425482,10.8357523 11.6425482,10.6955434 L11.6425482,10.1776402 C11.6425482,10.0374314 11.7574328,9.92276448 11.89573,9.92276448 L13.7224498,9.92276448 L13.7224498,8.10113643 C13.7224498,7.96092759 13.8351565,7.84843445 13.9756315,7.84843445 L14.4966958,7.84843445 C14.6349929,7.84843445 14.7476996,7.96092759 14.7476996,8.10113643 L14.7476996,9.92276448 L16.5765973,9.92276448 C16.7148945,9.92276448 16.8276012,10.0374314 16.8276012,10.1754665 L16.8276012,10.6955434 Z" id="Fill-4"></path>
                    </g>
                </g>
            </g>
        </g>
    </g>
</svg>