<?xml version="1.0" encoding="UTF-8" standalone="no"?>
<svg width="46px" height="44px" viewBox="0 0 46 44" version="1.1" xmlns="http://www.w3.org/2000/svg" xmlns:xlink="http://www.w3.org/1999/xlink" xmlns:sketch="http://www.bohemiancoding.com/sketch/ns">
    <!-- Generator: Sketch 3.3.2 (12043) - http://www.bohemiancoding.com/sketch -->
    <title>combo_chart</title>
    <desc>Created with Sketch.</desc>
    <defs></defs>
    <g id="Welcome" stroke="none" stroke-width="1" fill="none" fill-rule="evenodd" sketch:type="MSPage">
        <g id="Desktop-HD" sketch:type="MSArtboardGroup" transform="translate(-32.000000, -34.000000)">
            <g id="Sidebar" sketch:type="MSLayerGroup" transform="translate(-1.000000, 0.000000)">
                <g id="LOGO" transform="translate(1.000000, 0.000000)" sketch:type="MSShapeGroup">
                    <g id="combo_chart" transform="translate(33.000000, 36.000000)">
                        <g id="Group" transform="translate(0.000000, 12.000000)" fill="#00BCD4">
                            <rect id="Rectangle-path" x="32" y="0" width="6" height="24"></rect>
                            <rect id="Rectangle-path" x="24" y="8" width="6" height="16"></rect>
                            <rect id="Rectangle-path" x="16" y="4" width="6" height="20"></rect>
                            <rect id="Rectangle-path" x="8" y="14" width="6" height="10"></rect>
                            <rect id="Rectangle-path" x="0" y="10" width="6" height="14"></rect>
                        </g>
                        <g id="Group" fill="#C3C3C3">
                            <circle id="Oval" cx="3" cy="10" r="3"></circle>
                            <circle id="Oval" cx="11" cy="12" r="3"></circle>
                            <circle id="Oval" cx="19" cy="5" r="3"></circle>
                            <circle id="Oval" cx="27" cy="7" r="3"></circle>
                            <circle id="Oval" cx="35" cy="3" r="3"></circle>
                            <path d="M34.1,1.2 L26.8,4.9 L18.5,2.8 L10.5,9.8 L3.5,8.1 L2.5,11.9 L11.5,14.2 L19.5,7.2 L27.2,9.1 L35.9,4.8 L34.1,1.2 Z" id="Shape"></path>
                        </g>
                    </g>
                </g>
            </g>
        </g>
    </g>
</svg>