<?xml version="1.0" encoding="UTF-8" standalone="no"?>
<svg width="50px" height="47px" viewBox="0 0 50 47" version="1.1" xmlns="http://www.w3.org/2000/svg" xmlns:xlink="http://www.w3.org/1999/xlink" xmlns:sketch="http://www.bohemiancoding.com/sketch/ns">
    <!-- Generator: Sketch 3.3.2 (12043) - http://www.bohemiancoding.com/sketch -->
    <title>biohazard</title>
    <desc>Created with Sketch.</desc>
    <defs></defs>
    <g id="Welcome" stroke="none" stroke-width="1" fill="none" fill-rule="evenodd" sketch:type="MSPage">
        <g id="Desktop-HD" sketch:type="MSArtboardGroup" transform="translate(-31.000000, -348.000000)">
            <g id="Sidebar" sketch:type="MSLayerGroup" transform="translate(-1.000000, 0.000000)">
                <g id="Oil-Button" transform="translate(1.000000, 317.000000)" sketch:type="MSShapeGroup">
                    <g id="biohazard" transform="translate(31.000000, 32.000000)">
                        <path d="M22,9 C14.8,9 9,14.8 9,22 C9,29.2 14.8,35 22,35 C29.2,35 35,29.2 35,22 C35,14.8 29.2,9 22,9 L22,9 Z M22,31 C17,31 13,27 13,22 C13,17 17,13 22,13 C27,13 31,17 31,22 C31,27 27,31 22,31 L22,31 Z" id="Shape" fill="#00A344"></path>
                        <path d="M6.5,21.4 C10.5,19.2 15.5,20.3 18,23.9 C18.1,24 18.2,24 18.3,24 L19.5,23.3 C19.6,23.2 19.7,23.1 19.6,23 C19.6,22.8 19.5,22.6 19.5,22.4 L19.5,22.4 L19.5,22.2 L19.5,22.2 L19.5,22 L19.5,22 L19.5,21.8 L19.5,21.8 C19.5,21.7 19.5,21.7 19.6,21.6 L19.6,21.6 C19.6,21.5 19.6,21.5 19.7,21.4 L19.7,21.4 C19.7,21.4 19.7,21.3 19.8,21.3 C19.8,21.3 19.8,21.2 19.9,21.2 C19.9,21.2 19.9,21.1 20,21.1 L20.1,21 L20.1,21 L20.2,20.9 L20.2,20.9 L20.3,20.8 L20.3,20.8 L20.4,20.7 L20.4,20.7 L20.5,20.6 L20.6,20.6 C20.8,20.5 21,20.4 21.1,20.4 C21.2,20.4 21.3,20.3 21.3,20.1 L21.3,18.8 C21.3,18.7 21.2,18.6 21.1,18.6 C16.6,18.2 13.1,14.5 13.1,10 C13.1,5.9 16.1,2.4 20,1.6 C20.1,1.6 20.2,1.5 20.2,1.3 L20.2,0.8 C20.2,0.7 20.1,0.6 20,0.6 C14.4,1.5 10,6.4 10,12.3 C10,13.6 10.2,14.9 10.6,16.1 C9.4,16.3 8.1,16.8 7,17.4 C1.8,20.4 -0.3,26.6 1.8,31.9 C1.9,32 2,32 2.1,32 L2.4,31.8 C2.5,31.7 2.6,31.6 2.5,31.5 C1.3,27.7 2.8,23.4 6.5,21.4 L6.5,21.4 L6.5,21.4 Z M37,17.4 C35.8,16.7 34.6,16.3 33.4,16.1 C33.8,14.9 34,13.7 34,12.3 C34,6.4 29.6,1.5 23.8,0.6 C23.7,0.6 23.6,0.7 23.6,0.8 L23.6,1.2 C23.6,1.3 23.7,1.4 23.8,1.5 C27.8,2.3 30.7,5.8 30.7,9.9 C30.7,14.4 27.2,18.1 22.7,18.5 C22.6,18.5 22.5,18.6 22.5,18.7 L22.5,20 C22.5,20.1 22.6,20.2 22.7,20.3 C22.9,20.4 23.1,20.4 23.3,20.5 L23.3,20.5 L23.4,20.6 L23.4,20.6 C23.5,20.6 23.5,20.7 23.5,20.7 L23.5,20.7 C23.6,20.8 23.7,20.9 23.8,21 L23.8,21 L23.9,21.1 L23.9,21.1 L24,21.2 L24,21.3 L24,21.4 C24,21.4 24,21.5 24.1,21.5 L24.1,21.5 C24.1,21.6 24.1,21.6 24.2,21.7 L24.2,21.7 L24.2,21.9 L24.2,21.9 L24.2,22.1 C24.2,22.1 24.2,22.1 24.2,22.2 L24.2,22.3 C24.2,22.3 24.2,22.3 24.2,22.4 C24.2,22.6 24.2,22.8 24.1,23 C24.1,23.1 24.1,23.2 24.2,23.3 L25.4,24 C25.5,24.1 25.6,24 25.7,23.9 C28.3,20.3 33.3,19.1 37.2,21.4 C40.8,23.5 42.4,27.7 41.1,31.5 C41.1,31.6 41.1,31.7 41.2,31.8 L41.5,32 C41.6,32.1 41.7,32 41.8,31.9 C44.3,26.5 42.2,20.3 37,17.4 L37,17.4 L37,17.4 Z M28.8,36.3 C24.8,34.1 23.3,29.2 25.3,25.2 C25.4,25.1 25.3,25 25.2,24.9 L24,24.2 C23.9,24.1 23.8,24.2 23.7,24.2 C23.5,24.3 23.4,24.5 23.2,24.5 L23.2,24.5 C23.1,24.5 23.1,24.6 23,24.6 L23,24.6 C22.9,24.6 22.9,24.6 22.8,24.7 L22.8,24.7 C22.7,24.7 22.5,24.8 22.4,24.8 L22.4,24.8 L22.2,24.8 C22.2,24.8 22.2,24.8 22.1,24.8 L22,24.8 L21.9,24.8 L21.8,24.8 L21.7,24.8 C21.7,24.8 21.7,24.8 21.6,24.8 L21.4,24.8 L21.4,24.8 L21.2,24.8 L21.2,24.8 C21.1,24.8 21.1,24.8 21,24.7 L21,24.7 C21,24.7 20.9,24.7 20.9,24.6 C20.9,24.6 20.9,24.6 20.8,24.6 C20.6,24.5 20.5,24.4 20.3,24.3 C20.2,24.2 20.1,24.2 20,24.3 L18.8,25 C18.7,25.1 18.7,25.2 18.7,25.3 C20.6,29.3 19.1,34.1 15.2,36.4 C11.6,38.5 7,37.7 4.3,34.7 C4.2,34.6 4.1,34.6 4,34.6 L3.7,34.8 C3.6,34.9 3.6,35 3.6,35.1 C7.2,39.6 13.8,40.9 19,37.9 C20.2,37.2 21.2,36.4 22,35.5 C22.8,36.4 23.8,37.3 25,37.9 C30.2,40.9 36.7,39.5 40.4,35.1 C40.5,35 40.4,34.9 40.3,34.8 L40,34.5 C39.9,34.4 39.8,34.5 39.7,34.6 C37,37.5 32.4,38.3 28.8,36.3 L28.8,36.3 L28.8,36.3 Z" id="Shape" fill="#00C853"></path>
                    </g>
                </g>
            </g>
        </g>
    </g>
</svg>