<?xml version="1.0" encoding="UTF-8" standalone="no"?>
<svg width="46px" height="46px" viewBox="0 0 46 46" version="1.1" xmlns="http://www.w3.org/2000/svg" xmlns:xlink="http://www.w3.org/1999/xlink" xmlns:sketch="http://www.bohemiancoding.com/sketch/ns">
    <!-- Generator: Sketch 3.3.2 (12043) - http://www.bohemiancoding.com/sketch -->
    <title>doughnut_chart</title>
    <desc>Created with Sketch.</desc>
    <defs></defs>
    <g id="Welcome" stroke="none" stroke-width="1" fill="none" fill-rule="evenodd" sketch:type="MSPage">
        <g id="Desktop-HD" sketch:type="MSArtboardGroup" transform="translate(-34.000000, -451.000000)">
            <g id="Sidebar" sketch:type="MSLayerGroup" transform="translate(-1.000000, 0.000000)">
                <g id="Other-Button" transform="translate(1.000000, 419.000000)" sketch:type="MSShapeGroup">
                    <g id="doughnut_chart" transform="translate(35.000000, 34.000000)">
                        <path d="M19,25 C15.7,25 13,22.3 13,19 C13,15.7 15.7,13 19,13 L19,0 C8.5,0 0,8.5 0,19 C0,29.5 8.5,38 19,38 C23.4,38 27.5,36.5 30.8,33.9 L22.8,23.7 C21.7,24.5 20.4,25 19,25 L19,25 Z" id="Shape" fill="#00BCD4"></path>
                        <path d="M25,19 L38,19 C38,8.5 29.5,0 19,0 L19,13 C22.3,13 25,15.7 25,19 L25,19 Z" id="Shape" fill="#448AFF"></path>
                        <path d="M38,19 L25,19 C25,20.9 24.1,22.6 22.7,23.7 L30.7,33.9 C35.2,30.4 38,25 38,19 L38,19 Z" id="Shape" fill="#3F51B5"></path>
                    </g>
                </g>
            </g>
        </g>
    </g>
</svg>