<?xml version="1.0" encoding="UTF-8" standalone="no"?>
<svg width="23px" height="22px" viewBox="0 0 23 22" version="1.1" xmlns="http://www.w3.org/2000/svg" xmlns:xlink="http://www.w3.org/1999/xlink" xmlns:sketch="http://www.bohemiancoding.com/sketch/ns">
    <!-- Generator: Sketch 3.3.2 (12043) - http://www.bohemiancoding.com/sketch -->
    <title>twitter</title>
    <desc>Created with Sketch.</desc>
    <defs></defs>
    <g id="Welcome" stroke="none" stroke-width="1" fill="none" fill-rule="evenodd" sketch:type="MSPage">
        <g id="Mobile-Portrait" sketch:type="MSArtboardGroup" transform="translate(-149.000000, -993.000000)" fill="#8A8A8A">
            <g id="Group-Copy" sketch:type="MSLayerGroup" transform="translate(-190.000000, 984.000000)">
                <g id="twitter" transform="translate(339.585297, 8.947027)" sketch:type="MSShapeGroup">
                    <path d="M10.8127655,0.151077744 C4.85128863,0.151077744 0,4.99371723 0,10.9438979 C0,16.8962523 4.85128863,21.7383483 10.8127655,21.7383483 C16.7764203,21.7383483 21.6282534,16.8962523 21.6282534,10.9438979 C21.6282534,4.99371723 16.7764203,0.151077744 10.8127655,0.151077744 L10.8127655,0.151077744 Z M15.6390082,8.47502668 C15.6428196,8.58099848 15.6449975,8.68914405 15.6449975,8.79783308 C15.6449975,12.0796982 13.1420374,15.86425 8.56298724,15.86425 C7.15714804,15.86425 5.8487702,15.4550358 4.74729355,14.7480137 C4.94276074,14.7713819 5.14040583,14.7838811 5.34077331,14.7838811 C6.50813165,14.7838811 7.58020654,14.3871662 8.43285727,13.720359 C7.3439036,13.6991646 6.42537117,12.9818171 6.10848565,11.9943773 C6.25930573,12.0242668 6.41448163,12.0389398 6.57619125,12.0389398 C6.80160466,12.0389398 7.02266226,12.0095938 7.23119689,11.9519886 C6.0932403,11.7248285 5.23405585,10.7210854 5.23405585,9.51735442 C5.23405585,9.50648552 5.23405585,9.49616006 5.23623375,9.48529116 C5.56999806,9.67223628 5.95548766,9.78255564 6.36384529,9.79505488 C5.69577221,9.35160366 5.25529044,8.5896936 5.25529044,7.72778963 C5.25529044,7.27346951 5.37888669,6.84686509 5.59177713,6.47949619 C6.81848345,7.9826654 8.65445935,8.97173552 10.7212934,9.07553354 C10.6788242,8.89293598 10.6575896,8.70436052 10.6575896,8.50872027 C10.6575896,7.13760823 11.7721337,6.02517607 13.1463933,6.02517607 C13.8629248,6.02517607 14.5092188,6.32678811 14.9622235,6.80828049 C15.5301129,6.69796113 16.0642446,6.49199543 16.5450177,6.20559985 C16.3577177,6.78708613 15.9640609,7.27346951 15.4495303,7.58105945 C15.9537158,7.52182393 16.4344889,7.38813643 16.878782,7.19086585 C16.5471956,7.6875747 16.1235926,8.12450457 15.6390082,8.47502668 L15.6390082,8.47502668 Z" id="Fill-1"></path>
                </g>
            </g>
        </g>
    </g>
</svg>